<?xml version="1.0" encoding="utf-8"?>
<!-- Generator: Adobe Illustrator 16.0.0, SVG Export Plug-In . SVG Version: 6.00 Build 0)  -->
<!DOCTYPE svg PUBLIC "-//W3C//DTD SVG 1.1//EN" "http://www.w3.org/Graphics/SVG/1.1/DTD/svg11.dtd">
<svg version="1.1" id="Layer_2" xmlns="http://www.w3.org/2000/svg" xmlns:xlink="http://www.w3.org/1999/xlink" x="0px" y="0px"
	 width="960px" height="560px" viewBox="0 0 960 560" enable-background="new 0 0 960 560" xml:space="preserve">
<g id="Layer_1">
	<g id="OgQu8U.tif">
		<g>
			<path fill-rule="evenodd" clip-rule="evenodd" fill="#26561F" stroke="#489B3D" stroke-width="3" stroke-miterlimit="10" d="
				M442.142,326.296c0.333,0.069,0.664,0.146,0.999,0.207c2.571,0.471,5.165,0.52,7.766,0.413c1.141-0.046,2.281-0.114,3.42-0.192
				c1.219-0.084,2.436-0.193,3.654-0.287c2.3-0.177,4.602-0.331,6.91-0.225c1.539,0.07,3.059,0.275,4.521,0.796
				c2.395,0.853,4.01,2.484,4.857,4.877c0.555,1.568,0.933,3.168,0.893,4.848c-0.059,2.473-1.079,4.443-3.073,5.902
				c-1.394,1.02-2.97,1.639-4.644,1.992c-0.977,0.207-1.978,0.303-2.968,0.447c-0.034,0.006-0.068,0.01-0.102,0.016
				c-0.018,0.021-0.035,0.045-0.053,0.066c0.046,0.02,0.101,0.031,0.139,0.061c1.81,1.453,2.316,3.336,1.741,5.521
				c-0.57,2.164-1.913,3.795-3.738,5.037c-1.575,1.072-3.323,1.611-5.235,1.551c-1.796-0.057-3.417-0.664-4.904-1.654
				c-1.689-1.125-3.023-2.602-4.184-4.246c-1.613-2.287-2.812-4.791-3.819-7.391c-1.375-3.547-2.362-7.207-3.109-10.932
				c-0.299-1.49-0.535-2.994-0.8-4.49c-0.007-0.039-0.024-0.076-0.083-0.119c-0.041,0.148-0.083,0.299-0.124,0.447
				c-0.699,2.607-1.273,5.24-1.705,7.906c-0.343,2.117-0.594,4.242-0.75,6.381c-0.183,2.494-0.225,4.988-0.109,7.484
				c0.259,5.602,1.259,11.064,3.152,16.352c2.244,6.264,5.501,11.934,10.004,16.857c0.779,0.852,1.643,1.627,2.476,2.428
				c0.29,0.279,0.355,0.621,0.131,0.891c-0.228,0.273-0.599,0.283-0.914,0.014c-1.366-1.172-2.597-2.477-3.751-3.852
				c-4.563-5.432-7.792-11.584-9.867-18.354c-0.732-2.387-1.305-4.812-1.69-7.277c-0.228-1.459-0.397-2.928-0.545-4.396
				c-0.263-2.598-0.325-5.203-0.203-7.809c0.086-1.826,0.23-3.652,0.423-5.471c0.425-4.027,1.247-7.984,2.311-11.891
				c0.019-0.066,0.03-0.137,0.01-0.225c-0.057,0.062-0.116,0.123-0.171,0.188c-1.418,1.654-2.557,3.492-3.573,5.412
				c-1.315,2.486-2.398,5.078-3.511,7.656c-0.919,2.129-1.837,4.258-2.982,6.279c-0.79,1.395-1.676,2.717-2.835,3.838
				c-1.119,1.082-2.41,1.85-3.957,2.139c-1.02,0.189-2.038,0.152-3.057-0.02c-1.377-0.232-2.713-0.592-3.965-1.227
				c-2.24-1.137-3.644-2.91-4.087-5.404c-0.19-1.068-0.18-2.141-0.042-3.215c0.215-1.674,0.689-3.271,1.381-4.809
				c0.017-0.037,0.024-0.078,0.039-0.125c-0.389,0.125-0.755,0.273-1.135,0.359c-1.688,0.389-3.157-0.098-4.441-1.195
				c-1.383-1.182-2.214-2.713-2.643-4.459c-0.633-2.586-0.31-5.031,1.206-7.258c1.066-1.566,2.554-2.62,4.273-3.365
				c1.454-0.629,2.98-0.982,4.546-1.189c1.828-0.242,3.663-0.267,5.501-0.163c1.886,0.106,3.757,0.341,5.617,0.671
				c4.729,0.84,9.318,2.179,13.816,3.847c0.06,0.022,0.121,0.04,0.207,0.024c-0.058-0.046-0.114-0.093-0.174-0.137
				c-1.905-1.41-3.985-2.505-6.165-3.422c-2.443-1.029-4.969-1.817-7.499-2.594c-2.278-0.699-4.564-1.375-6.775-2.275
				c-1.283-0.521-2.526-1.122-3.695-1.87c-2.7-1.727-4.452-4.118-5.138-7.271c-0.284-1.307-0.496-2.618-0.429-3.959
				c0.101-1.997,0.756-3.732,2.426-4.967c0.855-0.631,1.825-1.014,2.853-1.252c1.241-0.287,2.5-0.373,3.771-0.332
				c1.356,0.043,2.697,0.203,4.022,0.494c0.041,0.009,0.085,0.001,0.167,0.001c-0.054-0.094-0.094-0.167-0.137-0.237
				c-0.565-0.947-0.913-1.963-0.937-3.072c-0.035-1.621,0.551-3.021,1.594-4.234c1.343-1.561,3.056-2.521,5.066-2.897
				c3.636-0.679,6.604,0.562,9.003,3.288c1.33,1.51,2.209,3.283,2.881,5.164c0.675,1.887,1.098,3.833,1.386,5.812
				c0.443,3.045,0.56,6.108,0.459,9.178c-0.064,1.958-0.209,3.916-0.371,5.869c-0.227,2.734-0.638,5.445-1.128,8.145
				c-0.001,0.007,0.003,0.014,0.014,0.062c0.048-0.099,0.086-0.169,0.117-0.241c0.736-1.764,1.208-3.602,1.532-5.481
				c0.396-2.298,0.585-4.616,0.665-6.944c0.083-2.4,0.134-4.801,0.219-7.201c0.085-2.444,0.227-4.885,0.745-7.285
				c0.357-1.655,0.894-3.242,1.867-4.652c1.243-1.801,2.982-2.85,5.084-3.35c1.365-0.324,2.745-0.528,4.152-0.482
				c1.9,0.063,3.653,0.561,5.149,1.787c1.269,1.041,2.097,2.389,2.67,3.906c0.534,1.412,0.83,2.881,0.927,4.385
				c0.05,0.766,0.038,1.535,0.054,2.303c0.001,0.034,0.004,0.068,0.007,0.131c0.048-0.033,0.079-0.048,0.102-0.07
				c1.788-1.774,3.877-2.09,6.168-1.205c2.145,0.828,3.69,2.363,4.811,4.338c0.971,1.711,1.408,3.558,1.244,5.525
				c-0.158,1.891-0.875,3.567-2.004,5.076c-1.188,1.589-2.694,2.822-4.362,3.869c-2.138,1.344-4.445,2.318-6.834,3.109
				c-2.643,0.876-5.341,1.537-8.088,1.979c-2.086,0.336-4.181,0.63-6.281,0.859c-1.73,0.189-3.474,0.26-5.211,0.379
				c-0.379,0.025-0.76,0.035-1.14,0.052C442.15,326.262,442.146,326.278,442.142,326.296z"/>
		</g>
	</g>
</g>
<g id="PpDnRY.tif">
	<g>
		<path fill="none" stroke="#489B3D" stroke-width="3" stroke-miterlimit="10" d="M540,298c0,2.334,0,4.666,0,7
			c-2.58,9.619-8.791,14.425-18.808,14.223c-0.255-0.004-0.518,0.354-1.241,0.881c0,1.471,0.002,3.271,0,5.072
			c-0.016,9.658,0.193,19.324-0.098,28.975c-0.58,19.234-16.342,35.622-35.375,35.893c-29.471,0.42-58.955,0.387-88.427,0.004
			c-17.974-0.232-33.732-14.245-35.916-32.189c-1.319-10.844-0.719-21.92-0.966-32.892c-0.043-1.917-0.006-3.835-0.006-6.05
			C348.205,319.654,342.68,314.16,340,305c0-2.334,0-4.666,0-7c2.413-0.969,4.847-2.639,7.228-2.564
			c0.97,0.029,2.376,3.778,2.626,5.945c0.714,6.199,2.957,8.266,9.345,7.293c0-7.843,0-15.764,0-23.916c53.764,0,107.07,0,160.895,0
			c0,8.293,0,16.224,0,24.063c6.896,0.915,9.332-1.196,10.052-7.421c0.251-2.171,1.647-5.932,2.606-5.959
			C535.143,295.373,537.581,297.033,540,298z"/>
		<path fill-rule="evenodd" clip-rule="evenodd" fill="none" stroke="#489B3D" stroke-width="3" stroke-miterlimit="10" d="
			M430.82,247.354c0,2.442,0.054,4.568-0.01,6.69c-0.193,6.408-3.131,9.338-9.321,9.339c-18.822,0.004-37.644,0.002-56.466,0.002
			c-1.788,0-3.576,0-5.539,0c0,4.984,0,9.365,0,13.912c53.536,0,106.75,0,160.085,0c0-4.705,0-9.081,0-13.912
			c-2.174,0-3.979,0-5.785,0c-18.988,0-37.978-0.079-56.964,0.075c-3.252,0.026-5.626-0.655-6.466-3.91
			c-1.008-3.907-1.718-7.89-2.633-12.196C442.627,247.354,437.203,247.354,430.82,247.354z M389.475,238.832
			c-1.136,3.07-2.752,5.654-2.868,8.303c-0.096,2.202,1.573,4.48,2.46,6.725c2.021-0.875,4.595-1.258,5.917-2.751
			c1.548-1.749,2.261-4.396,2.89-6.772c2.164-8.169-1.189-15.34-4.513-22.426c-3.126-6.665-3.833-12.841,1.521-18.958
			c2.809-3.21,0.85-7.553-3.26-7.541c-1.817,0.005-4.075,1.394-5.37,2.839c-7.604,8.485-6.835,17.674-2.076,27.273
			C386.29,229.788,387.729,234.385,389.475,238.832z"/>
		<path fill-rule="evenodd" clip-rule="evenodd" fill="none" stroke="#489B3D" stroke-width="3" stroke-miterlimit="10" d="M419,190
			c2.972,3.071,3.149,5.829,1.189,10.071c-1.855,4.015-1.948,9.228-1.537,13.798c0.424,4.708,2.589,9.233,3.645,13.917
			c1.758,7.803,0.342,15.166-3.779,22.013c-1.404,2.332-3.481,4.47-5.926,2.379c-1.604-1.371-3.22-5.098-2.466-6.47
			c4.989-9.08,2.389-17.738-0.452-26.508C406.211,208.51,407.175,198.63,415,190C416.333,190,417.667,190,419,190z"/>
		<path fill-rule="evenodd" clip-rule="evenodd" fill="none" stroke="#489B3D" stroke-width="3" stroke-miterlimit="10" d="
			M430.82,247.354c6.382,0,11.807,0,16.901,0c0.915,4.306,1.625,8.29,2.633,12.196c0.84,3.255,3.214,3.936,6.466,3.91
			c18.987-0.154,37.976-0.075,56.964-0.075c1.806,0,3.611,0,5.785,0c0,4.832,0,9.207,0,13.912c-53.335,0-106.55,0-160.085,0
			c0-4.547,0-8.928,0-13.912c1.963,0,3.751,0,5.539,0c18.822,0,37.644,0.002,56.466-0.002c6.19-0.001,9.128-2.932,9.321-9.339
			C430.874,251.922,430.82,249.796,430.82,247.354z"/>
		<path fill-rule="evenodd" clip-rule="evenodd" fill="none" stroke="#489B3D" stroke-width="3" stroke-miterlimit="10" d="
			M389.475,238.832c-1.746-4.447-3.185-9.044-5.299-13.308c-4.759-9.599-5.528-18.788,2.076-27.273
			c1.295-1.445,3.553-2.834,5.37-2.839c4.11-0.012,6.069,4.331,3.26,7.541c-5.354,6.116-4.647,12.293-1.521,18.958
			c3.324,7.086,6.677,14.256,4.513,22.426c-0.629,2.375-1.342,5.023-2.89,6.772c-1.322,1.493-3.897,1.877-5.917,2.751
			c-0.887-2.245-2.556-4.523-2.46-6.725C386.722,244.486,388.338,241.902,389.475,238.832z"/>
	</g>
</g>
</svg>
